<mxfile host="65bd71144e">
    <diagram name="Page-1" id="wA87l3zjqInHTcwdIvHh">
        <mxGraphModel dx="1154" dy="320" grid="1" gridSize="10" guides="1" tooltips="1" connect="1" arrows="1" fold="1" page="1" pageScale="1" pageWidth="827" pageHeight="1169" background="none" math="0" shadow="0">
            <root>
                <mxCell id="0"/>
                <mxCell id="1" parent="0"/>
                <mxCell id="-SGizZShXUogIMfPxS3m-2" value="" style="rounded=1;whiteSpace=wrap;html=1;fillColor=#ffe6cc;strokeColor=#d79b00;" parent="1" vertex="1">
                    <mxGeometry x="10" y="160" width="200" height="235" as="geometry"/>
                </mxCell>
                <mxCell id="-SGizZShXUogIMfPxS3m-4" value="Client" style="rounded=1;whiteSpace=wrap;html=1;fillColor=#dae8fc;strokeColor=#6c8ebf;" parent="1" vertex="1">
                    <mxGeometry x="220" y="162.5" width="90" height="230" as="geometry"/>
                </mxCell>
                <mxCell id="-SGizZShXUogIMfPxS3m-9" value="" style="rounded=1;whiteSpace=wrap;html=1;fillColor=#ffe6cc;strokeColor=#d79b00;" parent="1" vertex="1">
                    <mxGeometry x="610" y="160" width="200" height="235" as="geometry"/>
                </mxCell>
                <mxCell id="-SGizZShXUogIMfPxS3m-13" style="edgeStyle=orthogonalEdgeStyle;rounded=1;orthogonalLoop=1;jettySize=auto;html=1;" parent="1" edge="1">
                    <mxGeometry relative="1" as="geometry">
                        <mxPoint x="318.5" y="290" as="targetPoint"/>
                        <mxPoint x="500" y="290" as="sourcePoint"/>
                    </mxGeometry>
                </mxCell>
                <mxCell id="-SGizZShXUogIMfPxS3m-10" value="Server" style="rounded=1;whiteSpace=wrap;html=1;fillColor=#fff2cc;strokeColor=#d6b656;" parent="1" vertex="1">
                    <mxGeometry x="510" y="165" width="90" height="230" as="geometry"/>
                </mxCell>
                <mxCell id="-SGizZShXUogIMfPxS3m-16" value="Key Store" style="rounded=1;whiteSpace=wrap;html=1;" parent="1" vertex="1">
                    <mxGeometry x="50" y="290" width="120" height="60" as="geometry"/>
                </mxCell>
                <mxCell id="-SGizZShXUogIMfPxS3m-17" value="Trust Store" style="rounded=1;whiteSpace=wrap;html=1;" parent="1" vertex="1">
                    <mxGeometry x="50" y="180" width="120" height="60" as="geometry"/>
                </mxCell>
                <mxCell id="-SGizZShXUogIMfPxS3m-19" value="Private &amp;amp; Public key&amp;nbsp;&lt;div&gt;Of&amp;nbsp; Client&lt;/div&gt;" style="ellipse;shape=cloud;whiteSpace=wrap;html=1;rounded=1;" parent="1" vertex="1">
                    <mxGeometry y="450" width="210" height="120" as="geometry"/>
                </mxCell>
                <mxCell id="-SGizZShXUogIMfPxS3m-20" value="Public Key of server" style="ellipse;shape=cloud;whiteSpace=wrap;html=1;rounded=1;" parent="1" vertex="1">
                    <mxGeometry x="40" y="10" width="180" height="80" as="geometry"/>
                </mxCell>
                <mxCell id="-SGizZShXUogIMfPxS3m-22" value="Trust Store" style="rounded=1;whiteSpace=wrap;html=1;" parent="1" vertex="1">
                    <mxGeometry x="650" y="180" width="120" height="60" as="geometry"/>
                </mxCell>
                <mxCell id="-SGizZShXUogIMfPxS3m-24" value="Key Store" style="rounded=1;whiteSpace=wrap;html=1;" parent="1" vertex="1">
                    <mxGeometry x="650" y="290" width="120" height="60" as="geometry"/>
                </mxCell>
                <mxCell id="-SGizZShXUogIMfPxS3m-25" value="" style="endArrow=classic;html=1;rounded=1;" parent="1" edge="1">
                    <mxGeometry width="50" height="50" relative="1" as="geometry">
                        <mxPoint x="320" y="240" as="sourcePoint"/>
                        <mxPoint x="493.5" y="240" as="targetPoint"/>
                        <Array as="points"/>
                    </mxGeometry>
                </mxCell>
                <mxCell id="-SGizZShXUogIMfPxS3m-27" value="Public Key of Client" style="ellipse;shape=cloud;whiteSpace=wrap;html=1;rounded=1;" parent="1" vertex="1">
                    <mxGeometry x="630" y="30" width="180" height="80" as="geometry"/>
                </mxCell>
                <mxCell id="-SGizZShXUogIMfPxS3m-28" value="Private &amp;amp; Public key&amp;nbsp;&lt;div&gt;Of&amp;nbsp; Server&lt;/div&gt;" style="ellipse;shape=cloud;whiteSpace=wrap;html=1;rounded=1;" parent="1" vertex="1">
                    <mxGeometry x="580" y="465" width="230" height="120" as="geometry"/>
                </mxCell>
                <mxCell id="-SGizZShXUogIMfPxS3m-30" style="edgeStyle=orthogonalEdgeStyle;rounded=1;orthogonalLoop=1;jettySize=auto;html=1;entryX=0.521;entryY=0.141;entryDx=0;entryDy=0;entryPerimeter=0;" parent="1" source="-SGizZShXUogIMfPxS3m-2" target="-SGizZShXUogIMfPxS3m-19" edge="1">
                    <mxGeometry relative="1" as="geometry"/>
                </mxCell>
                <mxCell id="-SGizZShXUogIMfPxS3m-31" style="edgeStyle=orthogonalEdgeStyle;rounded=1;orthogonalLoop=1;jettySize=auto;html=1;entryX=0.385;entryY=0.936;entryDx=0;entryDy=0;entryPerimeter=0;" parent="1" source="-SGizZShXUogIMfPxS3m-2" target="-SGizZShXUogIMfPxS3m-20" edge="1">
                    <mxGeometry relative="1" as="geometry"/>
                </mxCell>
                <mxCell id="-SGizZShXUogIMfPxS3m-32" style="edgeStyle=orthogonalEdgeStyle;rounded=1;orthogonalLoop=1;jettySize=auto;html=1;entryX=0.444;entryY=1;entryDx=0;entryDy=0;entryPerimeter=0;" parent="1" source="-SGizZShXUogIMfPxS3m-9" target="-SGizZShXUogIMfPxS3m-27" edge="1">
                    <mxGeometry relative="1" as="geometry"/>
                </mxCell>
                <mxCell id="-SGizZShXUogIMfPxS3m-33" style="edgeStyle=orthogonalEdgeStyle;rounded=1;orthogonalLoop=1;jettySize=auto;html=1;entryX=0.564;entryY=0.139;entryDx=0;entryDy=0;entryPerimeter=0;" parent="1" source="-SGizZShXUogIMfPxS3m-9" target="-SGizZShXUogIMfPxS3m-28" edge="1">
                    <mxGeometry relative="1" as="geometry"/>
                </mxCell>
            </root>
        </mxGraphModel>
    </diagram>
</mxfile>